{
    "asset" : {
        "generator" : "Khronos glTF Blender I/O v0.9.36",
        "version" : "2.0"
    },
    "scene" : 0,
    "scenes" : [
        {
            "name" : "Scene",
            "nodes" : [
                0,
                14
            ]
        }
    ],
    "nodes" : [
        {
            "mesh" : 0,
            "name" : "controldeciber",
            "rotation" : [
                0.7071067690849304,
                0,
                0,
                0.7071067690849304
            ],
            "scale" : [
                0.7925481200218201,
                1.0113694667816162,
                0.8619645833969116
            ],
            "translation" : [
                -0.07873821258544922,
                3.3303794860839844,
                0.0014514370122924447
            ]
        },
        {
            "mesh" : 1,
            "name" : "defaultMaterial.006",
            "scale" : [
                1,
                0.7047889232635498,
                1
            ],
            "translation" : [
                0,
                -0.14755778014659882,
                0
            ]
        },
        {
            "children" : [
                1
            ],
            "name" : "Base_Low"
        },
        {
            "mesh" : 2,
            "name" : "defaultMaterial.010"
        },
        {
            "children" : [
                3
            ],
            "name" : "Computer_Low"
        },
        {
            "mesh" : 3,
            "name" : "defaultMaterial.011",
            "scale" : [
                0.8484363555908203,
                0.8484363555908203,
                0.8484363555908203
            ],
            "translation" : [
                -0.0711602121591568,
                0.04950280115008354,
                0.4034143388271332
            ]
        },
        {
            "children" : [
                5
            ],
            "name" : "Key_Board_Low"
        },
        {
            "mesh" : 4,
            "name" : "defaultMaterial.008",
            "rotation" : [
                0,
                0,
                -0.07578215003013611,
                0.997124433517456
            ],
            "scale" : [
                0.6055067181587219,
                0.6055067777633667,
                0.6055066585540771
            ],
            "translation" : [
                0.5871231555938721,
                0.35490351915359497,
                0.8896817564964294
            ]
        },
        {
            "children" : [
                7
            ],
            "name" : "Mouse_Low"
        },
        {
            "name" : "Mouse_Wheel_Low"
        },
        {
            "mesh" : 5,
            "name" : "defaultMaterial.009"
        },
        {
            "children" : [
                10
            ],
            "name" : "Vert_Low"
        },
        {
            "children" : [
                2,
                4,
                6,
                8,
                9,
                11
            ],
            "name" : "Collada visual scene group",
            "rotation" : [
                0.7071068286895752,
                0,
                0,
                0.7071068286895752
            ]
        },
        {
            "children" : [
                12
            ],
            "name" : "RootNode (model correction matrix)"
        },
        {
            "children" : [
                13
            ],
            "name" : "RootNode (gltf orientation matrix)",
            "translation" : [
                0.077850341796875,
                3.1457924842834473,
                0.23529312014579773
            ]
        }
    ],
    "materials" : [
        {
            "alphaCutoff" : 0.5,
            "alphaMode" : "MASK",
            "doubleSided" : true,
            "emissiveFactor" : [
                1,
                1,
                1
            ],
            "emissiveTexture" : {
                "index" : 0,
                "texCoord" : 0
            },
            "name" : "controldeciber.001",
            "pbrMetallicRoughness" : {}
        },
        {
            "doubleSided" : true,
            "emissiveFactor" : [
                1,
                1,
                1
            ],
            "emissiveTexture" : {
                "index" : 1,
                "texCoord" : 0
            },
            "name" : "01___Default.001",
            "normalTexture" : {
                "index" : 2,
                "texCoord" : 0
            },
            "pbrMetallicRoughness" : {
                "baseColorTexture" : {
                    "index" : 3,
                    "texCoord" : 0
                },
                "metallicRoughnessTexture" : {
                    "index" : 4,
                    "texCoord" : 0
                }
            }
        }
    ],
    "meshes" : [
        {
            "name" : "controldeciber.001",
            "primitives" : [
                {
                    "attributes" : {
                        "POSITION" : 0,
                        "NORMAL" : 1,
                        "TEXCOORD_0" : 2
                    },
                    "indices" : 3,
                    "material" : 0
                }
            ]
        },
        {
            "name" : "defaultMaterial.004",
            "primitives" : [
                {
                    "attributes" : {
                        "POSITION" : 4,
                        "NORMAL" : 5,
                        "TEXCOORD_0" : 6
                    },
                    "indices" : 7,
                    "material" : 1
                }
            ]
        },
        {
            "name" : "defaultMaterial.001",
            "primitives" : [
                {
                    "attributes" : {
                        "POSITION" : 8,
                        "NORMAL" : 9,
                        "TEXCOORD_0" : 10
                    },
                    "indices" : 11,
                    "material" : 1
                }
            ]
        },
        {
            "name" : "defaultMaterial.000",
            "primitives" : [
                {
                    "attributes" : {
                        "POSITION" : 12,
                        "NORMAL" : 13,
                        "TEXCOORD_0" : 14
                    },
                    "indices" : 15,
                    "material" : 1
                }
            ]
        },
        {
            "name" : "defaultMaterial.003",
            "primitives" : [
                {
                    "attributes" : {
                        "POSITION" : 16,
                        "NORMAL" : 17,
                        "TEXCOORD_0" : 18
                    },
                    "indices" : 19,
                    "material" : 1
                }
            ]
        },
        {
            "name" : "defaultMaterial.002",
            "primitives" : [
                {
                    "attributes" : {
                        "POSITION" : 20,
                        "NORMAL" : 21,
                        "TEXCOORD_0" : 22
                    },
                    "indices" : 23,
                    "material" : 1
                }
            ]
        }
    ],
    "textures" : [
        {
            "source" : 0
        },
        {
            "source" : 1
        },
        {
            "source" : 2
        },
        {
            "source" : 3
        },
        {
            "source" : 4
        }
    ],
    "images" : [
        {
            "bufferView" : 4,
            "mimeType" : "image/png",
            "name" : "Lot Schacht Lot MX LOOOT "
        },
        {
            "bufferView" : 9,
            "mimeType" : "image/png",
            "name" : "01___Default_emissive.jpeg"
        },
        {
            "bufferView" : 10,
            "mimeType" : "image/png",
            "name" : "01___Default_normal.png"
        },
        {
            "bufferView" : 11,
            "mimeType" : "image/png",
            "name" : "01___Default_baseColor.jpeg"
        },
        {
            "bufferView" : 12,
            "mimeType" : "image/png",
            "name" : "01___Default_metallicRoughness.png"
        }
    ],
    "accessors" : [
        {
            "bufferView" : 0,
            "componentType" : 5126,
            "count" : 4,
            "max" : [
                0.8888888955116272,
                0,
                0.5
            ],
            "min" : [
                -0.8888888955116272,
                0,
                -0.5
            ],
            "type" : "VEC3"
        },
        {
            "bufferView" : 1,
            "componentType" : 5126,
            "count" : 4,
            "type" : "VEC3"
        },
        {
            "bufferView" : 2,
            "componentType" : 5126,
            "count" : 4,
            "type" : "VEC2"
        },
        {
            "bufferView" : 3,
            "componentType" : 5123,
            "count" : 6,
            "type" : "SCALAR"
        },
        {
            "bufferView" : 5,
            "componentType" : 5126,
            "count" : 76,
            "max" : [
                0.1665789932012558,
                -0.01559399999678135,
                0.6527259945869446
            ],
            "min" : [
                -0.46845701336860657,
                -0.6506289839744568,
                0.5931910276412964
            ],
            "type" : "VEC3"
        },
        {
            "bufferView" : 6,
            "componentType" : 5126,
            "count" : 76,
            "type" : "VEC3"
        },
        {
            "bufferView" : 7,
            "componentType" : 5126,
            "count" : 76,
            "type" : "VEC2"
        },
        {
            "bufferView" : 8,
            "componentType" : 5123,
            "count" : 90,
            "type" : "SCALAR"
        },
        {
            "bufferView" : 13,
            "componentType" : 5126,
            "count" : 217,
            "max" : [
                0.5989099740982056,
                -0.23411400616168976,
                0.2998270094394684
            ],
            "min" : [
                -0.9093000292778015,
                -0.432561993598938,
                -0.6527259945869446
            ],
            "type" : "VEC3"
        },
        {
            "bufferView" : 14,
            "componentType" : 5126,
            "count" : 217,
            "type" : "VEC3"
        },
        {
            "bufferView" : 15,
            "componentType" : 5126,
            "count" : 217,
            "type" : "VEC2"
        },
        {
            "bufferView" : 16,
            "componentType" : 5123,
            "count" : 300,
            "type" : "SCALAR"
        },
        {
            "bufferView" : 17,
            "componentType" : 5126,
            "count" : 380,
            "max" : [
                0.42882999777793884,
                0.6506289839744568,
                0.6316800117492676
            ],
            "min" : [
                -1,
                0.1743530035018921,
                0.5208690166473389
            ],
            "type" : "VEC3"
        },
        {
            "bufferView" : 18,
            "componentType" : 5126,
            "count" : 380,
            "type" : "VEC3"
        },
        {
            "bufferView" : 19,
            "componentType" : 5126,
            "count" : 380,
            "type" : "VEC2"
        },
        {
            "bufferView" : 20,
            "componentType" : 5123,
            "count" : 936,
            "type" : "SCALAR"
        },
        {
            "bufferView" : 21,
            "componentType" : 5126,
            "count" : 177,
            "max" : [
                0.10472148656845093,
                0.16414767503738403,
                0.05794978141784668
            ],
            "min" : [
                -0.10473048686981201,
                -0.15336962044239044,
                -0.02986520528793335
            ],
            "type" : "VEC3"
        },
        {
            "bufferView" : 22,
            "componentType" : 5126,
            "count" : 177,
            "type" : "VEC3"
        },
        {
            "bufferView" : 23,
            "componentType" : 5126,
            "count" : 177,
            "type" : "VEC2"
        },
        {
            "bufferView" : 24,
            "componentType" : 5123,
            "count" : 510,
            "type" : "SCALAR"
        },
        {
            "bufferView" : 25,
            "componentType" : 5126,
            "count" : 174,
            "max" : [
                -0.09283439815044403,
                -0.432561993598938,
                0.6154429912567139
            ],
            "min" : [
                -0.21755599975585938,
                -0.5511789917945862,
                -0.35936200618743896
            ],
            "type" : "VEC3"
        },
        {
            "bufferView" : 26,
            "componentType" : 5126,
            "count" : 174,
            "type" : "VEC3"
        },
        {
            "bufferView" : 27,
            "componentType" : 5126,
            "count" : 174,
            "type" : "VEC2"
        },
        {
            "bufferView" : 28,
            "componentType" : 5123,
            "count" : 330,
            "type" : "SCALAR"
        }
    ],
    "bufferViews" : [
        {
            "buffer" : 0,
            "byteLength" : 48,
            "byteOffset" : 0
        },
        {
            "buffer" : 0,
            "byteLength" : 48,
            "byteOffset" : 48
        },
        {
            "buffer" : 0,
            "byteLength" : 32,
            "byteOffset" : 96
        },
        {
            "buffer" : 0,
            "byteLength" : 12,
            "byteOffset" : 128
        },
        {
            "buffer" : 0,
            "byteLength" : 2210,
            "byteOffset" : 140
        },
        {
            "buffer" : 0,
            "byteLength" : 912,
            "byteOffset" : 2352
        },
        {
            "buffer" : 0,
            "byteLength" : 912,
            "byteOffset" : 3264
        },
        {
            "buffer" : 0,
            "byteLength" : 608,
            "byteOffset" : 4176
        },
        {
            "buffer" : 0,
            "byteLength" : 180,
            "byteOffset" : 4784
        },
        {
            "buffer" : 0,
            "byteLength" : 123372,
            "byteOffset" : 4964
        },
        {
            "buffer" : 0,
            "byteLength" : 1278748,
            "byteOffset" : 128336
        },
        {
            "buffer" : 0,
            "byteLength" : 674432,
            "byteOffset" : 1407084
        },
        {
            "buffer" : 0,
            "byteLength" : 585124,
            "byteOffset" : 2081516
        },
        {
            "buffer" : 0,
            "byteLength" : 2604,
            "byteOffset" : 2666640
        },
        {
            "buffer" : 0,
            "byteLength" : 2604,
            "byteOffset" : 2669244
        },
        {
            "buffer" : 0,
            "byteLength" : 1736,
            "byteOffset" : 2671848
        },
        {
            "buffer" : 0,
            "byteLength" : 600,
            "byteOffset" : 2673584
        },
        {
            "buffer" : 0,
            "byteLength" : 4560,
            "byteOffset" : 2674184
        },
        {
            "buffer" : 0,
            "byteLength" : 4560,
            "byteOffset" : 2678744
        },
        {
            "buffer" : 0,
            "byteLength" : 3040,
            "byteOffset" : 2683304
        },
        {
            "buffer" : 0,
            "byteLength" : 1872,
            "byteOffset" : 2686344
        },
        {
            "buffer" : 0,
            "byteLength" : 2124,
            "byteOffset" : 2688216
        },
        {
            "buffer" : 0,
            "byteLength" : 2124,
            "byteOffset" : 2690340
        },
        {
            "buffer" : 0,
            "byteLength" : 1416,
            "byteOffset" : 2692464
        },
        {
            "buffer" : 0,
            "byteLength" : 1020,
            "byteOffset" : 2693880
        },
        {
            "buffer" : 0,
            "byteLength" : 2088,
            "byteOffset" : 2694900
        },
        {
            "buffer" : 0,
            "byteLength" : 2088,
            "byteOffset" : 2696988
        },
        {
            "buffer" : 0,
            "byteLength" : 1392,
            "byteOffset" : 2699076
        },
        {
            "buffer" : 0,
            "byteLength" : 660,
            "byteOffset" : 2700468
        }
    ],
    "buffers" : [
        {
            "byteLength" : 2701128,
            "uri" : "data:application/octet-stream;base64,"
        }
    ]
}
